<mxfile host="app.diagrams.net" agent="Mozilla/5.0 (Windows NT 10.0; Win64; x64) AppleWebKit/537.36 (KHTML, like Gecko) Chrome/128.0.0.0 Safari/537.36" version="24.7.12">
  <diagram name="페이지-1" id="vFbvB5QFXCAXFCvXCD8W">
    <mxGraphModel dx="792" dy="1097" grid="1" gridSize="10" guides="1" tooltips="1" connect="1" arrows="1" fold="1" page="1" pageScale="1" pageWidth="827" pageHeight="1169" math="0" shadow="0">
      <root>
        <mxCell id="0" />
        <mxCell id="1" parent="0" />
        <mxCell id="MvLENgiKJ69Zu3x2eMVX-45" style="edgeStyle=orthogonalEdgeStyle;rounded=0;orthogonalLoop=1;jettySize=auto;html=1;exitX=0.5;exitY=1;exitDx=0;exitDy=0;entryX=0.5;entryY=0;entryDx=0;entryDy=0;" edge="1" parent="1" source="MvLENgiKJ69Zu3x2eMVX-19" target="MvLENgiKJ69Zu3x2eMVX-20">
          <mxGeometry relative="1" as="geometry" />
        </mxCell>
        <mxCell id="MvLENgiKJ69Zu3x2eMVX-19" value="단어 맞추기&lt;div&gt;(글자수는 알려줌)&lt;/div&gt;&lt;div&gt;행맨 완성되면 실패&lt;br&gt;&lt;/div&gt;" style="rounded=0;whiteSpace=wrap;html=1;" vertex="1" parent="1">
          <mxGeometry x="310" y="220" width="120" height="60" as="geometry" />
        </mxCell>
        <mxCell id="MvLENgiKJ69Zu3x2eMVX-30" style="edgeStyle=orthogonalEdgeStyle;rounded=0;orthogonalLoop=1;jettySize=auto;html=1;exitX=0.25;exitY=1;exitDx=0;exitDy=0;entryX=0.5;entryY=0;entryDx=0;entryDy=0;" edge="1" parent="1" source="MvLENgiKJ69Zu3x2eMVX-20" target="MvLENgiKJ69Zu3x2eMVX-22">
          <mxGeometry relative="1" as="geometry" />
        </mxCell>
        <mxCell id="MvLENgiKJ69Zu3x2eMVX-31" style="edgeStyle=orthogonalEdgeStyle;rounded=0;orthogonalLoop=1;jettySize=auto;html=1;exitX=0.75;exitY=1;exitDx=0;exitDy=0;entryX=0.5;entryY=0;entryDx=0;entryDy=0;" edge="1" parent="1" source="MvLENgiKJ69Zu3x2eMVX-20" target="MvLENgiKJ69Zu3x2eMVX-21">
          <mxGeometry relative="1" as="geometry" />
        </mxCell>
        <mxCell id="MvLENgiKJ69Zu3x2eMVX-20" value="한글자씩&lt;div&gt;입력 받기&lt;/div&gt;" style="rounded=0;whiteSpace=wrap;html=1;" vertex="1" parent="1">
          <mxGeometry x="310" y="300" width="120" height="60" as="geometry" />
        </mxCell>
        <mxCell id="MvLENgiKJ69Zu3x2eMVX-33" style="edgeStyle=orthogonalEdgeStyle;rounded=0;orthogonalLoop=1;jettySize=auto;html=1;exitX=0.5;exitY=1;exitDx=0;exitDy=0;entryX=0.5;entryY=0;entryDx=0;entryDy=0;" edge="1" parent="1" source="MvLENgiKJ69Zu3x2eMVX-21" target="MvLENgiKJ69Zu3x2eMVX-27">
          <mxGeometry relative="1" as="geometry" />
        </mxCell>
        <mxCell id="MvLENgiKJ69Zu3x2eMVX-21" value="틀린 글자 입력" style="rounded=0;whiteSpace=wrap;html=1;" vertex="1" parent="1">
          <mxGeometry x="390" y="400" width="120" height="60" as="geometry" />
        </mxCell>
        <mxCell id="MvLENgiKJ69Zu3x2eMVX-54" style="edgeStyle=orthogonalEdgeStyle;rounded=0;orthogonalLoop=1;jettySize=auto;html=1;exitX=0.5;exitY=1;exitDx=0;exitDy=0;entryX=0.5;entryY=0;entryDx=0;entryDy=0;" edge="1" parent="1" source="MvLENgiKJ69Zu3x2eMVX-22" target="MvLENgiKJ69Zu3x2eMVX-26">
          <mxGeometry relative="1" as="geometry" />
        </mxCell>
        <mxCell id="MvLENgiKJ69Zu3x2eMVX-22" value="올바른 글자 입력" style="rounded=0;whiteSpace=wrap;html=1;" vertex="1" parent="1">
          <mxGeometry x="230" y="410" width="120" height="60" as="geometry" />
        </mxCell>
        <mxCell id="MvLENgiKJ69Zu3x2eMVX-53" style="edgeStyle=orthogonalEdgeStyle;rounded=0;orthogonalLoop=1;jettySize=auto;html=1;exitX=0.5;exitY=1;exitDx=0;exitDy=0;entryX=0.5;entryY=0;entryDx=0;entryDy=0;" edge="1" parent="1" source="MvLENgiKJ69Zu3x2eMVX-26">
          <mxGeometry relative="1" as="geometry">
            <mxPoint x="290" y="585" as="targetPoint" />
          </mxGeometry>
        </mxCell>
        <mxCell id="MvLENgiKJ69Zu3x2eMVX-26" value="글자의 위치를 알려주기" style="rounded=0;whiteSpace=wrap;html=1;" vertex="1" parent="1">
          <mxGeometry x="230" y="495" width="120" height="60" as="geometry" />
        </mxCell>
        <mxCell id="MvLENgiKJ69Zu3x2eMVX-52" value="" style="edgeStyle=orthogonalEdgeStyle;rounded=0;orthogonalLoop=1;jettySize=auto;html=1;" edge="1" parent="1" source="MvLENgiKJ69Zu3x2eMVX-27">
          <mxGeometry relative="1" as="geometry">
            <mxPoint x="450" y="585" as="targetPoint" />
          </mxGeometry>
        </mxCell>
        <mxCell id="MvLENgiKJ69Zu3x2eMVX-27" value="행맨 그리기" style="rounded=0;whiteSpace=wrap;html=1;" vertex="1" parent="1">
          <mxGeometry x="390" y="495" width="120" height="60" as="geometry" />
        </mxCell>
        <mxCell id="MvLENgiKJ69Zu3x2eMVX-40" value="종료" style="rounded=0;whiteSpace=wrap;html=1;" vertex="1" parent="1">
          <mxGeometry x="310" y="760" width="120" height="60" as="geometry" />
        </mxCell>
        <mxCell id="MvLENgiKJ69Zu3x2eMVX-61" style="edgeStyle=orthogonalEdgeStyle;rounded=0;orthogonalLoop=1;jettySize=auto;html=1;exitX=0.5;exitY=1;exitDx=0;exitDy=0;entryX=0.5;entryY=0;entryDx=0;entryDy=0;" edge="1" parent="1" source="MvLENgiKJ69Zu3x2eMVX-42" target="MvLENgiKJ69Zu3x2eMVX-46">
          <mxGeometry relative="1" as="geometry" />
        </mxCell>
        <mxCell id="MvLENgiKJ69Zu3x2eMVX-42" value="시작" style="rounded=0;whiteSpace=wrap;html=1;" vertex="1" parent="1">
          <mxGeometry x="310" y="50" width="120" height="60" as="geometry" />
        </mxCell>
        <mxCell id="MvLENgiKJ69Zu3x2eMVX-62" style="edgeStyle=orthogonalEdgeStyle;rounded=0;orthogonalLoop=1;jettySize=auto;html=1;exitX=0.5;exitY=1;exitDx=0;exitDy=0;entryX=0.5;entryY=0;entryDx=0;entryDy=0;" edge="1" parent="1" source="MvLENgiKJ69Zu3x2eMVX-46" target="MvLENgiKJ69Zu3x2eMVX-19">
          <mxGeometry relative="1" as="geometry" />
        </mxCell>
        <mxCell id="MvLENgiKJ69Zu3x2eMVX-46" value="랜덤 단어 선택" style="rounded=0;whiteSpace=wrap;html=1;" vertex="1" parent="1">
          <mxGeometry x="310" y="140" width="120" height="60" as="geometry" />
        </mxCell>
        <mxCell id="MvLENgiKJ69Zu3x2eMVX-66" value="단어 완성?" style="rhombus;whiteSpace=wrap;html=1;" vertex="1" parent="1">
          <mxGeometry x="230" y="585" width="120" height="80" as="geometry" />
        </mxCell>
        <mxCell id="MvLENgiKJ69Zu3x2eMVX-70" value="행맨 완성?" style="rhombus;whiteSpace=wrap;html=1;" vertex="1" parent="1">
          <mxGeometry x="390" y="585" width="120" height="80" as="geometry" />
        </mxCell>
        <mxCell id="MvLENgiKJ69Zu3x2eMVX-82" style="edgeStyle=orthogonalEdgeStyle;rounded=0;orthogonalLoop=1;jettySize=auto;html=1;entryX=0;entryY=0.5;entryDx=0;entryDy=0;" edge="1" parent="1" source="MvLENgiKJ69Zu3x2eMVX-73" target="MvLENgiKJ69Zu3x2eMVX-40">
          <mxGeometry relative="1" as="geometry" />
        </mxCell>
        <mxCell id="MvLENgiKJ69Zu3x2eMVX-73" value="예" style="text;html=1;align=center;verticalAlign=middle;resizable=0;points=[];autosize=1;strokeColor=none;fillColor=none;" vertex="1" parent="1">
          <mxGeometry x="270" y="690" width="40" height="30" as="geometry" />
        </mxCell>
        <mxCell id="MvLENgiKJ69Zu3x2eMVX-84" style="edgeStyle=orthogonalEdgeStyle;rounded=0;orthogonalLoop=1;jettySize=auto;html=1;entryX=1;entryY=0.75;entryDx=0;entryDy=0;" edge="1" parent="1" source="MvLENgiKJ69Zu3x2eMVX-74" target="MvLENgiKJ69Zu3x2eMVX-40">
          <mxGeometry relative="1" as="geometry" />
        </mxCell>
        <mxCell id="MvLENgiKJ69Zu3x2eMVX-74" value="예" style="text;html=1;align=center;verticalAlign=middle;resizable=0;points=[];autosize=1;strokeColor=none;fillColor=none;" vertex="1" parent="1">
          <mxGeometry x="430" y="690" width="40" height="30" as="geometry" />
        </mxCell>
        <mxCell id="MvLENgiKJ69Zu3x2eMVX-80" style="edgeStyle=orthogonalEdgeStyle;rounded=0;orthogonalLoop=1;jettySize=auto;html=1;entryX=1;entryY=0.5;entryDx=0;entryDy=0;exitX=0.533;exitY=0.033;exitDx=0;exitDy=0;exitPerimeter=0;" edge="1" parent="1" source="MvLENgiKJ69Zu3x2eMVX-75" target="MvLENgiKJ69Zu3x2eMVX-20">
          <mxGeometry relative="1" as="geometry" />
        </mxCell>
        <mxCell id="MvLENgiKJ69Zu3x2eMVX-75" value="아니오" style="text;html=1;align=center;verticalAlign=middle;resizable=0;points=[];autosize=1;strokeColor=none;fillColor=none;" vertex="1" parent="1">
          <mxGeometry x="560" y="480" width="60" height="30" as="geometry" />
        </mxCell>
        <mxCell id="MvLENgiKJ69Zu3x2eMVX-78" style="edgeStyle=orthogonalEdgeStyle;rounded=0;orthogonalLoop=1;jettySize=auto;html=1;entryX=0;entryY=0.5;entryDx=0;entryDy=0;exitX=0.533;exitY=-0.033;exitDx=0;exitDy=0;exitPerimeter=0;" edge="1" parent="1" source="MvLENgiKJ69Zu3x2eMVX-76" target="MvLENgiKJ69Zu3x2eMVX-20">
          <mxGeometry relative="1" as="geometry" />
        </mxCell>
        <mxCell id="MvLENgiKJ69Zu3x2eMVX-76" value="아니오" style="text;html=1;align=center;verticalAlign=middle;resizable=0;points=[];autosize=1;strokeColor=none;fillColor=none;" vertex="1" parent="1">
          <mxGeometry x="120" y="480" width="60" height="30" as="geometry" />
        </mxCell>
        <mxCell id="MvLENgiKJ69Zu3x2eMVX-77" style="edgeStyle=orthogonalEdgeStyle;rounded=0;orthogonalLoop=1;jettySize=auto;html=1;exitX=0;exitY=0.5;exitDx=0;exitDy=0;entryX=0.5;entryY=1.033;entryDx=0;entryDy=0;entryPerimeter=0;" edge="1" parent="1" source="MvLENgiKJ69Zu3x2eMVX-66" target="MvLENgiKJ69Zu3x2eMVX-76">
          <mxGeometry relative="1" as="geometry" />
        </mxCell>
        <mxCell id="MvLENgiKJ69Zu3x2eMVX-79" style="edgeStyle=orthogonalEdgeStyle;rounded=0;orthogonalLoop=1;jettySize=auto;html=1;exitX=1;exitY=0.5;exitDx=0;exitDy=0;entryX=0.517;entryY=0.967;entryDx=0;entryDy=0;entryPerimeter=0;" edge="1" parent="1" source="MvLENgiKJ69Zu3x2eMVX-70" target="MvLENgiKJ69Zu3x2eMVX-75">
          <mxGeometry relative="1" as="geometry" />
        </mxCell>
        <mxCell id="MvLENgiKJ69Zu3x2eMVX-81" style="edgeStyle=orthogonalEdgeStyle;rounded=0;orthogonalLoop=1;jettySize=auto;html=1;exitX=0.5;exitY=1;exitDx=0;exitDy=0;entryX=0.425;entryY=-0.033;entryDx=0;entryDy=0;entryPerimeter=0;" edge="1" parent="1" source="MvLENgiKJ69Zu3x2eMVX-66" target="MvLENgiKJ69Zu3x2eMVX-73">
          <mxGeometry relative="1" as="geometry" />
        </mxCell>
        <mxCell id="MvLENgiKJ69Zu3x2eMVX-83" style="edgeStyle=orthogonalEdgeStyle;rounded=0;orthogonalLoop=1;jettySize=auto;html=1;exitX=0.5;exitY=1;exitDx=0;exitDy=0;entryX=0.425;entryY=0.167;entryDx=0;entryDy=0;entryPerimeter=0;" edge="1" parent="1" source="MvLENgiKJ69Zu3x2eMVX-70" target="MvLENgiKJ69Zu3x2eMVX-74">
          <mxGeometry relative="1" as="geometry" />
        </mxCell>
      </root>
    </mxGraphModel>
  </diagram>
</mxfile>
